<svg xmlns="http://www.w3.org/2000/svg" width="512" height="512" viewBox="0 0 512.002 512.002">
  <circle xmlns="http://www.w3.org/2000/svg" cx="256.001" cy="256.001" r="256.001" fill="#6f2332" data-original="#006775"/>
  <path xmlns="http://www.w3.org/2000/svg" d="M256 346.351c85.187 0 163.254 12.714 223.889 33.842C436.193 458.805 352.317 512 256 512S75.807 458.806 32.112 380.194C92.746 359.065 170.813 346.351 256 346.351z" fill="#4e4e50" data-original="#d8dbba"/>
  <path xmlns="http://www.w3.org/2000/svg" d="M389.538 474.434c-38.878 23.824-84.596 37.567-133.537 37.567-36.283 0-70.789-7.55-102.063-21.165 140.258-42.585 43.686-33.523 45.891-58.914 1.539-17.704 42.648-9.881 85.37-22.203 42.722-12.313 3.242-24.534 3.242-24.534 40.081-1.257 71.673 22.485 37.621 36.337-34.052 13.852-27.322 20.009 11.931 27.713 14.387 2.822 33.321 13.186 51.545 25.199z" fill="#807e87" data-original="#b7ba91"/>
  <path xmlns="http://www.w3.org/2000/svg" d="M116.461 165.575c0 1.594.073 2.778.182 4.08.054.674-.018 1.439.009 2.131.027.957.173.966.201 1.93.137 4.417.391 4.381.747 7.978.073.747.009 1.257.137 2.004.127.765.201 1.084.337 1.794.109.546.1 1.193.219 1.912.519 3.397 1.458 7.367 2.322 10.665l.792 3.479c.146.656.328 1.011.474 1.657l.692 2.404c.118.401.21.447.346.819.21.574.246 1.047.474 1.657l4.462 11.63c.155.392.137.447.309.847l1.002 2.295c1.503 2.987 2.851 5.983 4.517 8.861l.41.756c.192.337.036.027.228.355l3.46 5.846c1.585 2.431 3.169 4.981 4.909 7.304.155.21.3.456.474.692l5.974 7.595c.036.045.146.164.173.21l3.087 3.497c.036.036.155.155.201.191l5.71 5.92c.036.027.082.054.109.082l5.3 4.972c.246.228.255.228.519.456l13.497 10.355c.036.027.082.054.118.082l14.116 8.378 16.484 7.167 5.71 1.849c.574.146.319.082.856.309.72.3 1.065.228 1.713.428l3.242 1.029c.546.155 1.147.182 1.749.382.847.273.829.228 1.903.419.519.091 1.138.382 1.657.474.829.146 1.029.118 1.812.328.783.201.929.219 1.794.337l5.401.993c.592.118 1.165.091 1.939.192.501.064 1.384.237 1.986.337 4.025.692 12.613.966 16.484.966 5.6 0 12.395-.228 17.941-1.248 1.32-.246 2.223-.192 3.725-.537 1.458-.337 3.925-.51 5.482-.92l6.949-1.575c1.476-.264 3.415-1.011 4.963-1.43l5.573-1.794c.419-.146.337-.182.819-.337l1.585-.555c3.488-1.184 6.821-2.713 10.127-4.226l1.876-.838c.309-.155.41-.21.637-.328.255-.128.537-.255.783-.382l1.411-.72c.993-.51 1.858-.91 2.832-1.429 2.368-1.275 4.763-2.541 7.022-4.025l8.742-5.792c.856-.637 1.566-1.184 2.431-1.831.474-.355.765-.61 1.193-.938l2.104-1.585.309-.264 6.875-5.92c.382-.382.674-.747 1.038-1.093.027-.027.073-.064.1-.091.027-.027.073-.064.1-.091l1.393-1.32c.027-.027.073-.064.1-.1l1.393-1.32c.027-.027.073-.064.1-.091l.674-.683.291-.291.291-.291.483-.483 3.616-3.943c2.341-2.65 4.444-5.51 6.712-8.214l.173-.219a.494.494 0 00.082-.109l10.437-15.928c.018-.036.054-.082.073-.118l4.609-8.961c1.203-2.404 2.04-5.018 3.214-7.45.702-1.458 1.165-3.151 1.74-4.663.583-1.539 1.239-3.142 1.621-4.781.665-2.814 1.821-5.473 2.331-8.333l.783-3.479c.637-2.25.883-4.736 1.439-7.094.993-4.216 1.821-15.719 1.821-19.698v-4.845c0-3.433-.564-12.267-1.193-15.874l-1.212-7.313c-.118-.665-.364-1.174-.456-1.684l-1.53-7.004c-.21-.628-.273-1.156-.437-1.693-1.212-4.071-2.25-8.078-3.925-11.976l-.273-.892c-.1-.337-.182-.456-.282-.692-.109-.273-.182-.546-.309-.847l-3.279-7.577c-.273-.546-.447-1.011-.656-1.476l-9.299-16.301c-.346-.528-.456-.783-.838-1.293l-1.02-1.503c-.027-.036-.064-.073-.091-.109l-3.279-4.471a.494.494 0 01-.082-.109l-6.193-7.568c-.346-.355-.237-.282-.528-.637l-4.954-5.318c-.027-.027-.064-.073-.091-.1-.027-.027-.073-.064-.1-.1L350.7 66.81l-.291-.291-6.694-6.101c-3.224-2.887-6.812-5.365-10.281-7.941-.036-.027-.082-.054-.109-.082l-.109-.082-10.819-6.83c-2.695-1.639-6.138-3.433-9.089-4.681-.246-.1-.483-.237-.774-.382l-9.809-4.153c-.355-.146-.447-.137-.874-.291-.647-.228-.801-.328-1.548-.583l-6.393-2.14c-.774-.228-.938-.109-1.713-.419l-8.478-2.185c-1.831-.246-3.46-.774-5.3-1.093-.747-.127-1.311-.091-1.912-.228-3.142-.729-6.211-.847-9.435-1.221-7.24-.847-17.458-.819-24.672-.018-1.293.146-3.006.173-4.098.364l-10.992 1.803c-1.174.282-2.404.546-3.607.847-.72.182-1.038.155-1.74.391-.774.255-.892.21-1.731.401-2.586.592-7.286 2.149-9.945 3.042-.564.192-.984.373-1.594.537l-8.761 3.451c-.201.082-.21.073-.419.164l-7.322 3.534a91.02 91.02 0 00-2.823 1.439l-6.839 4.016c-.192.127-.391.228-.61.355l-9.681 6.602a1.006 1.006 0 00-.1.091l-5.51 4.381c-.027.027-.073.064-.1.091l-6.002 5.246c-.246.264-.255.291-.456.51l-3.97 3.789c-.182.182-.355.346-.483.483l-1.002 1.138-.291.291-2.04 2.232c-.045.054-.173.164-.291.291l-1.439 1.657c-.164.192-.045.064-.273.309l-.819.929c-.027.027-.064.073-.091.1l-.474.501c-2.677 3.097-5.1 6.475-7.431 9.827l-2.632 3.761c-.364.51-.447.801-.801 1.33l-1.42 2.259c-.164.273-.054.082-.228.355l-1.239 2.058c-.155.264-.264.492-.41.756l-3.333 6.166c-.173.355-.219.465-.382.774l-2.122 4.471c-1.093 2.431-1.995 5.128-3.16 7.504-.537 1.093-.801 2.431-1.311 3.534l-2.978 9.426c-.819 2.814-2.331 9.371-2.742 12.385-.064.501-.246 1.156-.382 1.749l-.747 5.846c-.082 1.138-.428 2.605-.546 3.725l-.219 4.235c-.027 1.002-.146 1.084-.192 1.939-.036.692.036 1.448 0 2.131l-.192 4.262.031.008z" fill="#edebff" data-original="#edebff"/>
  <path xmlns="http://www.w3.org/2000/svg" d="M282.365 71.208c-6.257.182-14.59 1.53-16.411 8.087-.865 3.133.146 4.672.856 7.24-1.275.182-2.167.692-3.233.874-3.661.646-6.83.756-9.007 3.789-2.067 2.869-1.867 5.428-.847 7.577-.601.3-1.193.619-1.776.966-1.467-2.86-4.59-4.909-8.406-4.162-7.149 1.402-5.81 9.89-2.386 14.389a32.12 32.12 0 00-3.97 8.579c-1.33 1.776-1.666 4.799-1.275 7.705-.018.474-.036.948-.036 1.42 0 3.697.619 7.24 1.758 10.546-3.297 1.448-1.102 5.464 2.887 6.157a32.44 32.44 0 004.526 5.846c-.082.027-.164.045-.246.064-1.293-1.293-1.912-2.496-4.462-2.723-2.368-.219-3.515.829-4.763 2.587-2.842 4.007-4.991 12.012-1.221 16.584 1.002 1.221 2.905 2.605 4.471 2.932 5.027 1.065 5.264-6.384 6.949-7.732 2.851.674 2.941 1.357 6.767.711 2.295-.391 4.126-1.248 5.609-2.331.501-.364.957-.883 1.348-1.512a31.78 31.78 0 007.131 1.138c.21 3.534 1.603 5.237 4.317 6.448 6.648 2.959 12.804-1.894 15.082-5.537 1.704-2.732 2.368-5.374 2.25-7.887a32.294 32.294 0 005.009-4.963c2.823 4.335 5.401 9.335 7.586 14.416.41 1.639.948 3.233 1.53 4.699 1.521 3.853 1.239 1.494 1.047 4.763-2.086-.319-2.914-1.165-5.428 0-5.227 2.422-5.537 9.753-2.458 13.707 3.661 4.699 10.5 2.35 11.922-3.479.237-.957.309-1.703.291-2.386 2.641 4.363 5.218 3.388 12.058 4.599.073.537.164 1.102.273 1.713-4.808-.164-8.515 1.375-11.211 4.854-.792 1.02-1.476 2.668-2.04 3.315-4.025.073-1.512-.246-4.007-1.93-.683-.465-1.722-1.056-2.632-1.248-2.167-.474-4.763.355-6.466 1.184-8.497 4.117-7.732 15.154-5.392 22.895a35.233 35.233 0 003.579 8.051c.501.829 1.212 1.693 1.63 2.523-.81 2.213-.984 3.097-.993 5.656l-2.577-.027c-2.113-2.959-.437-2.86-.355-5.437.036-1.33-.237-2.058-.747-2.978-.51-.92-.392-2.223-1.047-2.823-1.384-1.293-4.289-.883-5.983-.192-6.976 2.86-3.679 11.985-4.499 13.342-.81 1.339-4.399 4.645-5.71 5.528-1.921 1.284-4.18.546-6.821.783-16.948 1.521-12.586 19.926-9.299 21.975 3.442 2.14 8.761.346 11.511-1.958 1.038-.874 2.832-2.632 3.534-4.016 3.506.192 5.865.738 9.69.519 2.959-.173 5.911-.91 8.06-2.176 2.568-1.521 3.233-2.695 4.444-5.828 1.293-3.342 1.503-4.981 1.111-8.943 3.342-.391 2.194.41 4.817 1.129 1.402.382 4.28.592 5.828.564 3.916-.063 6.694-2.614 8.114-4.864 1.803-2.86 2.614-6.812 1.612-10.665-1.184-4.535-2.969-5.401-5.492-7.541.128-1.53.237-2.559.273-4.207 1.776.073 2.641.018 4.216-.401 1.029.847 1.275 1.585 2.623 2.568 3.397 2.477 8.597 2.823 12.395 1.147 4.845-2.14 4.672-4.572 6.038-6.949.419-.729.592-1.065.819-1.903.492-1.831.309-3.069-.118-4.799 4.891-1.302 4.153-3.853 5.227-5.81.219-.401.61-.601.957-.966 1.612-1.666 2.659-3.625 3.106-6.184.219-1.248.192-2.167.091-3.46-.1-1.275.574-1.393 1.174-2.458 2.686-4.736 1.84-13.432-4.098-15.337-2.668-.856-4.053.282-5.701 1.212l.064-6.548c.819-.683 1.704-.456 3.315-2.031 1.12-1.102 1.248-2.04 1.977-3.561 1.047 3.506 2.796 7.004 7.213 6.739 3.616-.219 6.166-3.798 6.466-7.532.51-6.365-5.318-11.821-10.419-8.051-2.031 1.503-1.749 2.514-3.024 4.171-.219-.874-.373-1.675-.756-2.532-.392-.901-.847-1.393-1.221-2.203 1.32-.492 2.905-2.203 1.612-4.007-1.221-1.693-2.359-1.257-4.499-1.93.009-4.526 1.885-4.144 2.587-10.036 1.32-11.093-4.189-19.754-15.555-19.289-1.503.064-1.32.401-2.641-.219.182-3.361.637-4.726-.938-7.778-.911-1.758-3.033-4.089-4.836-4.708.537-2.286 8.351-13.443.182-18.943-3.06-2.058-6.329-2.568-9.963-.646-3.005 1.585-4.344 4.599-4.207 8.979l-6.266-.601c.437-2.167 3.616-5.62-.337-12.349-.765-1.293-1.639-2.158-2.241-3.242 12.668-1.939 2.55-15.136-6.949-9.872-2.923 1.621-3.233 3.033-2.959 7.231l-.008-.011zm-101.589 26.21c-3.552.702-1.703 3.871 1.575 3.187 3.188-.664 1.703-3.833-1.575-3.187zm21.028 1.995c-3.097 1.002-1.657 5.41 1.366 4.553 2.987-.847 1.685-5.537-1.366-4.553zm100.159 146.633c-2.713-1.084-3.16 1.648-5.045 3.825-.519.601-.774 1.448-.155 2.158.465.528 2.969 1.056 4.544-.874.866-1.066 1.23-3.624.656-5.109zm-70.861-73.531c-3.816 1.657-1.776 8.169 1.794 6.748 1.248-.492 2.203-2.44 1.794-4.354-.319-1.501-1.685-3.222-3.588-2.394zM191.34 97.464c-5.792 1.248-3.279 7.613 2.149 6.466 1.785-.373 3.889-1.959 3.006-4.244-.619-1.621-2.969-2.695-5.155-2.232v.01zm16.993 5.482c1.212 2.496 6.238 3.715 9.261 2.259 4.854-2.331-1.458-5.264-3.807-5.383-2.304-.118-4.69 1.284-5.464 3.124h.01zm30.746 75.926c11.885 1.348 6.848 15.637-4.726 12.313.537.91 1.921 1.968 2.914 2.468 1.476.747 2.686.583 4.344.127 2.923-.81 4.963-2.55 6.074-4.79 2.076-4.207.474-9.69-3.706-10.592-2.076-.447-3.078.127-4.9.465v.009zm88.057 46.1c-7.486 1.566-9.507 11.22-4.39 10.865 2.523-.173 4.79-2.941 5.765-4.59 1.749-2.96 1.684-6.912-1.375-6.275zM303.102 67.748c-5.072 1.485-4.198 11.347 4.408 8.142 2.632-.984 4.836-2.431 2.431-5.318-1.147-1.377-3.87-3.699-6.839-2.824zm-52.284-10.665l-7.304-.228c6.566 3.288 14.188 3.187 21.311 1.156 13.014-3.715 6.976-8.988-.064-9.8l.948.874c.702.519 2.213 2.013 2.404 3.078.901 4.9-14.443 4.909-17.294 4.909v.011zm95.761 68.076c-5.1 1.302-4.098 15.792 1.056 14.499 2.35-.592 3.424-4.799 3.297-7.823-.118-2.686-1.521-7.395-4.354-6.667v-.009h.001zm-91.016 40.781c-7.386 1.977-8.351 10.437-6.503 11.857 2.959 2.277 10.118.474 12.459-5.6 1.722-4.453-1.594-7.423-5.956-6.257zm-29.571-67.547c-8.952 1.566-4.672 11.32-.009 14.845 2.194 1.657 3.424 1.903 6.12.665 12.668-5.855 2.778-17.057-6.12-15.5l.009-.01zm-82.947 55.079c-2.013.264-1.977.201-2.95 1.411-2.487 3.078-2.695 6.248-.72 9.681 1.566 2.723 5.983 6.839 10.637 6.94 3.042.064 3.752-1.704 4.408-4.235.646-2.487.72-5.374-.036-7.823-1.411-4.544-5.446-6.748-11.338-5.965l-.001-.009zm88.967-70.197c-1.749-.537-4.18-1.302-6.056-.355-4.462 2.259-1.794 9.143 3.006 7.686 1.939-.592 3.315-2.067 3.998-3.77 1.42 1.275 3.187 4.954 9.326 5.227 3.934.182 9.554-.492 12.568-2.149 10.491-13.032-14.508-21.62-21.374-9.744-1.212 1.275-.847 2.076-1.467 3.097v.009h-.001zm104.886 29.261c1.129-.948 1.84-6.056 1.867-7.85.1-5.392-2.268-9.936-6.639-12.677-1.794-1.129-5.291-2.505-8.024-1.903-2.158.474-2.14 5.573-1.968 7.805.639 8.122 5.22 14.634 14.764 14.625zM164.237 210.71c-5.036.61-8.279 2.368-9.252 6.958-1.156 5.482 3.106 16.102 5.582 18.569 1.248 1.248 2.704 2.568 4.399 3.734 3.697 2.532 8.151 3.196 13.452 2.259 5.227-.92 8.251-1.722 9.171-6.885.829-4.726-1.056-9.536-2.896-12.951-3.224-5.965-10.218-12.923-20.445-11.685l-.011.001z" fill="#d4d4e6" data-original="#d4d4e6"/>
  <g xmlns="http://www.w3.org/2000/svg">
    <path d="M.219 266.036A260.86 260.86 0 010 256c0-7.978.382-15.865 1.102-23.651l.957-.901 48.423-47.211s12.933-20.445 27.977-19.097c15.045 1.357 22.34 4.909 25.5 8.688 2.559 3.069 62.32-8.042 86.791-16.393 5.62-1.912 18.706-15.054 18.706-15.054l13.26-13.26 35.281-41.465 2.25 1.995-34.152 43.878-7.268 6.11 36.874-9.563-5.929 5.41-33.687 9.471-18.187 17.14-88.658 24.463s-12.222-.519-24.972-1.648c-12.732-1.12-18.068 6.566-18.068 6.566L.219 266.036zM310.725 120.14h3.415v6.466h8.46v3.415h-8.46v32.457h-3.415v-32.457h-8.46v-3.415h8.46v-6.466z" fill="#1a1a1d" data-original="#333333"/>
    <path d="M288.166 257.393h48.514V200.1h11.712l-35.973-46.209-35.973 46.209h11.712v57.293h.008z" fill="#1a1a1d" data-original="#333333"/>
  </g>
  <path xmlns="http://www.w3.org/2000/svg" fill="#c3073f" data-original="#fff000" d="M298.434 207.957h27.986V237.5h-27.986z"/>
  <g xmlns="http://www.w3.org/2000/svg">
    <path d="M365.139 214.663h3.415v6.466h8.46v3.415h-8.46v32.457h-3.415v-32.457h-8.46v-3.415h8.46v-6.466zm-109.166 0h3.415v6.466h8.46v3.415h-8.46v32.457h-3.415v-32.457h-8.46v-3.415h8.46v-6.466z" fill="#1a1a1d" data-original="#333333"/>
    <path d="M342.818 268.45v5.365l5.109-5.365h-5.109zm47.785 70.734v46.009H233.725v-46.009h-.127V294.86H213.57l43.979-46.209 13.351 14.025 41.255-43.55 41.255 43.55 13.351-14.025 43.979 46.209h-20.027v44.324h-.128.018zm-109.094-65.362v-5.365H276.4l5.109 5.365z" fill="#1a1a1d" data-original="#333333"/>
  </g>
  <path xmlns="http://www.w3.org/2000/svg" d="M269.497 351.269c6.721 0 12.213 5.492 12.213 12.213v20.09h-24.417v-20.09c0-6.712 5.492-12.213 12.204-12.213zm42.93-5.509c6.712 0 12.213 5.492 12.213 12.213v25.6h-24.417v-25.601c0-6.712 5.492-12.213 12.213-12.213l-.009.001zm42.932 5.509c6.712 0 12.213 5.492 12.213 12.213v20.09h-24.417v-20.09c0-6.712 5.491-12.213 12.204-12.213z" fill="#c3073f" data-original="#fff000"/>
  <g xmlns="http://www.w3.org/2000/svg">
    <path d="M215.984 369.156l2.122-2.541 2.122 2.541v15.91h-4.235v-15.91h-.009zm190.602 0l2.122-2.541 2.122 2.541v15.91h-4.235v-15.91h-.009zm-9.526 0l2.122-2.541 2.122 2.541v15.91h-4.235v-15.91h-.009zm-9.526 0l2.122-2.541 2.122 2.541v15.91h-4.235v-15.91h-.009zm-9.526 0l2.122-2.541 2.122 2.541v15.91h-4.235v-15.91h-.009zm-9.526 0l2.122-2.541 2.122 2.541v15.91h-4.235v-15.91h-.009zm-9.526 0l2.122-2.541 2.122 2.541v15.91h-4.235v-15.91h-.009zm-9.526 0l2.122-2.541 2.122 2.541v15.91h-4.235v-15.91h-.009zm-9.526 0l2.122-2.541 2.122 2.541v15.91h-4.235v-15.91h-.009zm-9.526 0l2.122-2.541 2.122 2.541v15.91h-4.235v-15.91h-.009zm-9.526 0l2.122-2.541 2.122 2.541v15.91h-4.235v-15.91h-.009zm-9.526 0l2.122-2.541 2.122 2.541v15.91h-4.235v-15.91h-.009zm-9.527 0l2.122-2.541 2.122 2.541v15.91h-4.235v-15.91h-.009zm-9.525 0l2.122-2.541 2.122 2.541v15.91h-4.235v-15.91h-.009zm-9.527 0l2.122-2.541 2.122 2.541v15.91h-4.235v-15.91h-.009zm-9.525 0l2.122-2.541 2.122 2.541v15.91h-4.235v-15.91h-.009zm-9.527 0l2.122-2.541 2.122 2.541v15.91h-4.235v-15.91h-.009zm-9.525 0l2.122-2.541 2.122 2.541v15.91h-4.235v-15.91h-.009zm-9.527 0l2.122-2.541 2.122 2.541v15.91h-4.235v-15.91h-.009zm-9.525 0l2.122-2.541 2.122 2.541v15.91h-4.235v-15.91h-.009zm-9.527 0l2.122-2.541 2.122 2.541v15.91H225.6v-15.91h-.009z" fill="#1a1a1d" data-original="#333333"/>
    <path fill="#1a1a1d" data-original="#333333" d="M210.025 374.676h206.762v3.315H210.025z"/>
  </g>
  <g xmlns="http://www.w3.org/2000/svg">
    <path d="M357.453 295.397h19.161v26.256h-19.161v-26.256zM248.232 295.397h19.17v26.256h-19.17v-26.256zM312.427 292.93c6.712 0 12.213 5.492 12.213 12.204v25.9h-24.417v-25.9c0-6.712 5.492-12.204 12.213-12.204h-.009zM312.163 256.183c6.521 0 11.812 5.291 11.812 11.812h-23.624c.001-6.521 5.292-11.812 11.812-11.812z" fill="#c3073f" data-original="#fff000"/>
  </g>
  <path xmlns="http://www.w3.org/2000/svg" d="M312.163 256.183c.182 0 .373.009.555.018v9.153c.237.045.465.109.674.192l4.098-8.096c.337.164.656.355.975.555l-4.117 8.142c.192.173.373.373.519.601l7.158-5.264c.201.309.392.637.574.966l-7.268 5.345c.018.064.027.137.045.21h-1.412l-.009-.027V267.888l-.009-.009V267.798l-.009-.009V267.762l-.009-.009v-.018l-.009-.009v-.018l-.009-.009v-.018l-.009-.009v-.009l-.009-.009v-.009l-.009-.009v-.018l-.009-.009-.009-.009v-.009l-.009-.009-.009-.009v-.009l-.009-.009v-.009l-.009-.009v-.018l-.009-.009v-.009l-.009-.009-.009-.018v-.009l-.009-.009-.009-.009c-.018-.036-.045-.073-.063-.1-.018-.018-.027-.036-.045-.054l-.009-.018-.009-.018-.009-.018-.009-.009-.009-.018a.217.217 0 00-.064-.064l-.009-.009-.018-.018-.009-.009-.018-.018-.009-.009-.009-.009-.009-.009-.009-.009-.018-.018-.018-.009-.018-.009-.009-.009-.02-.013-.018-.009-.009-.009v-.009l-.018-.009-.009-.009-.018-.009c-.018-.009-.027-.018-.045-.027l-.018-.009-.018-.009-.018-.009-.018-.009-.018-.009-.018-.009-.018-.009-.018-.009-.018-.009-.018-.009-.018-.009-.027-.018-.018-.009-.018-.009-.018-.009-.018-.009-.018-.009-.018-.009-.018-.009-.018-.009-.018-.009h-.009l-.009-.009-.018-.009h-.009l-.009-.009-.018-.009h-.009l-.009-.009-.018-.009h-.018l-.018-.009c-.018-.009-.036-.009-.045-.018H312.521l-.018-.009H312.4l-.027-.009h-.009l-.027-.009H311.607l-.018.009H311.49l-.045.018-.018.009h-.018l-.018.009-.009.009h-.009l-.018.009-.018.009-.018.009-.009.009h-.009l-.018.009-.018.009-.018.009-.018.009-.018.009-.018.009-.018.009c-.027.018-.054.027-.073.045l-.018.009c-.018.009-.036.027-.064.036-.054.036-.1.064-.146.1l-.018.009a.74.74 0 00-.091.082l-.009.009-.018.009-.009.009a1.408 1.408 0 00-.109.118l-.009.018-.036.036-.009.018c-.018.018-.027.036-.045.054a.698.698 0 00-.064.1l-.009.009-.009.009v.009l-.009.018-.009.009-.009.009V267.508l-.009.009v.009l-.009.009v.018l-.009.009v.009l-.009.009-.009.009v.009l-.009.009v.018l-.009.009v.009l-.009.009v.018l-.009.009v.018l-.009.009v.018l-.009.009v.054l-.009.009v.018l-.009.018v.063a.167.167 0 00-.018.064h-1.412c.009-.073.027-.137.045-.21l-7.268-5.345c.173-.328.364-.656.574-.966l7.158 5.264c.146-.219.319-.419.519-.601l-4.117-8.142c.309-.201.637-.382.975-.555l4.098 8.096a2.89 2.89 0 01.674-.192v-9.153c.182-.009.373-.018.555-.018l.085.046z" fill="#1a1a1d" data-original="#333333"/>
  <path xmlns="http://www.w3.org/2000/svg" d="M312.427 187.988c5.291 0 9.59 4.289 9.59 9.59h-19.17c0-5.291 4.289-9.59 9.59-9.59h-.01z" fill="#c3073f" data-original="#fff000"/>
  <g xmlns="http://www.w3.org/2000/svg">
    <path d="M312.427 187.988c.155 0 .3.009.456.009v7.431c.192.036.373.082.546.155l3.324-6.575c.273.137.537.282.792.447l-3.342 6.602c.164.146.3.309.419.483l5.81-4.271c.164.255.328.51.465.783l-5.902 4.335c.018.054.027.109.036.164h-1.147l-.009-.018V197.308l-.009-.009v-.063l-.009-.009V197.2l-.009-.009V197.164l-.009-.009V197.128l-.009-.009V197.092l-.009-.009v-.009l-.009-.018v-.009l-.009-.009v-.009a5.842 5.842 0 01-.054-.082c-.009-.018-.027-.027-.036-.045l-.009-.009-.009-.009-.009-.009-.009-.009-.009-.009c-.018-.018-.036-.036-.045-.054l-.009-.009-.009-.009-.009-.009-.009-.009-.009-.009-.009-.009h-.009l-.009-.009-.009-.009-.009-.009-.009-.009-.009-.009-.009-.009-.009-.009-.009-.009-.009-.009-.009-.009-.009-.009c-.009-.009-.027-.018-.036-.027l-.009-.009-.009-.009-.018-.009-.009-.009-.009-.009-.009-.009-.018-.009-.009-.009-.009-.009-.018-.009-.009-.009-.027-.009-.018-.009-.009-.009-.018-.009-.009-.009-.018-.009-.009-.009-.018-.009-.009-.009-.018-.009h-.009l-.009-.009-.018-.009h-.009l-.009-.009-.018-.009h-.009l-.009-.009-.009-.009h-.018l-.018-.009c-.018-.009-.027-.009-.045-.018H311.836l-.036.018-.018.009h-.018l-.018.009-.009.009h-.009l-.018.009-.009.009-.009.009-.009.009-.018.009-.009.009h-.009l-.018.009-.009.009-.018.009-.018.009-.009.009c-.027.009-.045.027-.064.036l-.009.009c-.018.009-.036.018-.045.036-.036.027-.082.054-.118.082l-.009.009a.522.522 0 00-.073.064l-.009.009-.009.009-.009.009-.091.091-.009.009a.124.124 0 00-.027.036l-.009.009c-.009.018-.027.027-.036.045a5.842 5.842 0 00-.054.082l-.009.009v.018l-.009.018-.009.009v.054l-.009.009V197.176l-.009.009v.009l-.009.009v.009l-.009.009v.045l-.009.009V197.401l-.009.009v.063c-.009.018-.009.036-.018.054h-1.147c.009-.054.018-.109.036-.164l-5.902-4.335c.146-.273.3-.528.465-.783l5.81 4.271c.118-.182.264-.346.419-.483l-3.342-6.602a8.76 8.76 0 01.792-.447l3.324 6.575c.173-.073.355-.127.546-.155v-7.431c.155-.009.3-.009.456-.009l.065.024zM321.252 322.746l1.102-1.32 1.102 1.32v8.297h-2.213v-8.297h.009zm-4.963 0l1.102-1.32 1.102 1.32v8.297h-2.203l-.001-8.297zm-4.963 0l1.102-1.32 1.102 1.32v8.297h-2.203l-.001-8.297zm-4.973 0l1.102-1.32 1.102 1.32v8.297h-2.213v-8.297h.009zm-4.963 0l1.102-1.32 1.102 1.32v8.297h-2.213v-8.297h.009z" fill="#1a1a1d" data-original="#333333"/>
    <path d="M300.215 325.624h24.417v1.731h-24.417v-1.731zM254.042 295.397h.91v5.282h5.719v-5.282h.91v5.282h5.81v.984h-5.81v4.462h5.81v.984h-5.81v4.462h5.81v.984h-5.81v4.462h5.81v.984h-5.81v3.643h-.91v-3.643h-5.719v3.643h-.91v-3.643h-5.81v-.984h5.81v-4.462h-5.81v-.984h5.81v-4.462h-5.81v-.984h5.81v-4.462h-5.81v-.984h5.81v-5.282zm.911 6.266v4.462h5.719v-4.462h-5.719zm0 5.446v4.462h5.719v-4.462h-5.719zm0 5.446v4.462h5.719v-4.462h-5.719zM363.272 295.397h.911v5.282h5.719v-5.282h.91v5.282h5.81v.984h-5.81v4.462h5.81v.984h-5.81v4.462h5.81v.984h-5.81v4.462h5.81v.984h-5.81v3.643h-.91v-3.643h-5.719v3.643h-.911v-3.643h-5.81v-.984h5.81v-4.462h-5.81v-.984h5.81v-4.462h-5.81v-.984h5.81v-4.462h-5.81v-.984h5.81v-5.282zm.912 6.266v4.462h5.719v-4.462h-5.719zm0 5.446v4.462h5.719v-4.462h-5.719zm0 5.446v4.462h5.719v-4.462h-5.719zM303.448 207.96h.783v5.609h4.927v-5.609h.783v5.609h4.954v-5.609h.783v5.609h4.936v-5.609h.783v5.609h5.009v1.047h-5.009v4.736h5.009v1.047h-5.009v4.736h5.009v1.047h-5.009v4.736h5.009v1.047h-5.009v3.862h-.783v-3.862h-4.936v3.862h-.783v-3.862h-4.954v3.862h-.783v-3.862h-4.927v3.862h-.783v-3.862h-5.009v-1.047h5.009v-4.736h-5.009v-1.047h5.009V220.4h-5.009v-1.047h5.009v-4.736h-5.009v-1.047h5.009v-5.61zm11.457 6.657h-4.954v4.736h4.954v-4.736zm-4.954 5.784v4.736h4.954v-4.736h-4.954zm4.954 5.783h-4.954v4.736h4.954v-4.736zm5.719-11.567v4.736h-4.936v-4.736h4.936zm0 5.784v4.736h-4.936v-4.736h4.936zm0 5.783v4.736h-4.936v-4.736h4.936zm-16.393-11.567v4.736h4.927v-4.736h-4.927zm0 5.784v4.736h4.927v-4.736h-4.927zm0 5.783v4.736h4.927v-4.736h-4.927zM348.811 161.923l-12.249 2.559c3.024-.182 7.641 2.341 7.868 4.262 3.233-.419 3.187.447 4.817 1.885 2.996-.966 5.482.865 5.92 1.311 1.065 1.084 1.557 1.794 2.331 1.831 1.011.045 1.53-1.174 2.532-1.912 1.266-.938 3.051-1.439 4.864-1.33 1.476-1.402 2.559-2.742 5.537-1.575.228-1.921 4.69-4.645 7.723-4.462l-11.712-2.541c-.665 2.377-4.936 8.934-6.302 2.213 0 0 .483-.401-.328-1.758-.819-1.348-1.621 1.138-1.621 1.138-.309.018-.574.009-.711.127-.137-.118-.401-.1-.711-.127 0 0-.801-2.487-1.621-1.138-.819 1.348-.328 1.758-.328 1.758-1.348 6.611-5.291.391-6.029-2.232l.02-.009z" fill="#1a1a1d" data-original="#333333"/>
  </g>
  <path xmlns="http://www.w3.org/2000/svg" d="M359.429 164.019l-1.594 1.284s.601.483 1.275.219c.665-.264.319-1.494.319-1.494v-.009z" fill="#c3073f" data-original="#ffff00"/>
  <path xmlns="http://www.w3.org/2000/svg" d="M359.429 164.019l-1.594 1.284.018.018 1.494-1.002a1.53 1.53 0 01-.054 1.084c.41-.401.137-1.375.137-1.375v-.009z" fill="red" data-original="#ffba00"/>
  <path xmlns="http://www.w3.org/2000/svg" d="M355.568 164.019l1.594 1.284s-.601.483-1.275.219c-.665-.264-.319-1.494-.319-1.494v-.009z" fill="#c3073f" data-original="#ffff00"/>
  <path xmlns="http://www.w3.org/2000/svg" d="M355.568 164.019l1.594 1.284-.018.018-1.494-1.002a1.53 1.53 0 00.054 1.084c-.401-.401-.128-1.375-.128-1.375l-.008-.009z" fill="red" data-original="#ffba00"/>
  <path xmlns="http://www.w3.org/2000/svg" d="M221.812 188.999l-22.085 16.684c5.875-3.214 17.495-2.532 19.763 1.093 6.074-3.889 6.803-2.113 11.421-.792 5.081-4.754 11.784-3.451 13.078-2.978 3.151 1.165 4.799 2.122 6.394 1.448 2.067-.865 1.959-3.798 3.26-6.22 1.648-3.06 4.745-5.756 8.469-7.249 1.63-4.207 2.523-7.905 9.599-8.378-1.357-4.053 5-13.725 11.22-16.22l-25.81 5.974c.91 5.392-1.439 22.522-10.509 10.382 0 0 .592-1.266-2.322-3.196-2.914-1.93-2.158 3.807-2.158 3.807-.601.337-1.147.546-1.302.91-.382-.109-.892.173-1.53.428 0 0-3.952-4.225-4.308-.747-.355 3.479.993 3.825.993 3.825 3.552 14.49-10.2 5.783-14.152 1.23l-.021-.001z" fill="#1a1a1d" data-original="#333333"/>
  <path xmlns="http://www.w3.org/2000/svg" d="M245.026 183.171l-1.977 4.062s1.666.391 2.751-.765c1.084-1.166-.774-3.297-.774-3.297z" fill="#c3073f" data-original="#ffff00"/>
  <path xmlns="http://www.w3.org/2000/svg" d="M245.026 183.171l-1.977 4.062s.018.009.054.009l2.04-3.406c.601.665.883 1.375.92 2.203.428-1.193-1.029-2.869-1.029-2.869h-.008v.001z" fill="red" data-original="#ffba00"/>
  <path xmlns="http://www.w3.org/2000/svg" d="M237.294 186.823l4.39 1.056s-.756 1.539-2.341 1.63c-1.585.091-2.049-2.695-2.049-2.695v.009z" fill="#c3073f" data-original="#ffff00"/>
  <path xmlns="http://www.w3.org/2000/svg" d="M237.294 186.823l4.39 1.056s-.009.018-.027.045l-3.925-.592c.137.892.501 1.557 1.12 2.113-1.193-.428-1.558-2.622-1.558-2.622z" fill="red" data-original="#ffba00"/>
  <g xmlns="http://www.w3.org/2000/svg">
    <path d="M169.838 113.456l-7.14 8.178 18.806 11.175c4.034.219 5.428-9.672 11.001-12.03 2.313-.984.009-1.056.009-3.789 0-2.523.646-3.015-.637-4.535-5.819-6.867-18.724-6.567-22.039 1.001z" fill="#1a1a1d" data-original="#333333"/>
    <path d="M153.145 127.918c-20.217 20.81-25.035 23.077-42.248 32.603-8.506 3.233-1.393 4.471 4.572 3.214 12.504-2.641 33.815-9.225 38.113-8.214 6.53 2.923 15.773.528 22.449-6.338 7.923-8.16 9.225-19.526 2.905-25.39s-17.868-4.016-25.791 4.135v-.01z" fill="#1a1a1d" data-original="#333333"/>
  </g>
  <path xmlns="http://www.w3.org/2000/svg" d="M209.317 120.742l5.173 5.81-8.214-4.144-14.371-3.98-.192-3.634c.273-.182 1.129-.555.774-1.439l16.829 7.395.001-.008z" fill="#4d4d4d" data-original="#4d4d4d"/>
  <path xmlns="http://www.w3.org/2000/svg" d="M214.781 126.625l-8.506-4.225-14.371-3.98-.756 2.769 14.599 3.06 9.034 2.376z" fill="#1a1a1d" data-original="#333333"/>
  <path xmlns="http://www.w3.org/2000/svg" d="M153.509 160.467s-.656 1.284-.656 2.031c0 .219.036.309.519.564l4.326 1.476c-1.849 1.894-1.174 2.914-.036 3.834-.118-1.858.637-1.968 1.53-2.532.328.656.665.883.456 2.751-.219 1.876-1.794 3.06-1.794 3.06s1.539.792 2.978-.646c1.429-1.429.792-3.406.792-3.406 2.277 3.515.437 3.706-.72 5.137 4.244.382 4.28-4.198 3.042-5.237 1.366 1.585 1.731 3.388.127 5.255 2.614.346 3.306-2.386 1.794-5.155-1.193-2.122-6.994-4.572-9.563-5.327l.601-1.038c-.21-1.147-1.23-1.503-3.379-.765l-.017-.002z" fill="#c3073f" data-original="#ff873d"/>
  <path xmlns="http://www.w3.org/2000/svg" d="M157.307 152.161l-.091.182-3.779 7.195s-.364.847-.219 1.138c.146.3 1.203-.21 2.14.228.938.438 1.275 1.029 1.275 1.029s.72-.155.747-.747c.027-.592 6.894-7.268 6.976-6.985.081.282-7.049-2.04-7.049-2.04z" fill="#1a1a1d" data-original="#333333"/>
  <path xmlns="http://www.w3.org/2000/svg" d="M187.269 113.474c-1.193 0-2.167.966-2.167 2.158s.966 2.167 2.167 2.167c1.193 0 2.158-.975 2.158-2.167s-.965-2.158-2.158-2.158z" fill="#fff" data-original="#ffffff"/>
  <g xmlns="http://www.w3.org/2000/svg">
    <path d="M187.624 114.612c-.601 0-1.084.492-1.084 1.093s.483 1.084 1.084 1.084 1.084-.483 1.084-1.084-.483-1.093-1.084-1.093zM163.755 122.253c8.752 3.588 7.932 15.045 2.223 19.38-17.614 13.36-52.631 12.959-52.631 12.959 29.671-15.655 41.656-35.928 50.408-32.348v.009z" fill="#1a1a1d" data-original="#333333"/>
  </g>
  <path xmlns="http://www.w3.org/2000/svg" d="M143.291 160.467s-.656 1.284-.656 2.031c0 .219.036.309.519.564l4.326 1.476c-1.849 1.894-1.174 2.914-.036 3.834-.118-1.858.637-1.968 1.521-2.532.328.656.665.883.456 2.751-.219 1.876-1.794 3.06-1.794 3.06s1.539.792 2.978-.646c1.429-1.429.792-3.406.792-3.406 2.277 3.515.437 3.706-.72 5.137 4.244.382 4.28-4.198 3.042-5.237 1.366 1.585 1.731 3.388.127 5.255 2.614.346 3.306-2.386 1.794-5.155-1.193-2.122-6.994-4.572-9.563-5.327l.601-1.038c-.21-1.147-1.23-1.503-3.379-.765l-.008-.002z" fill="#c3073f" data-original="#ff873d"/>
  <g xmlns="http://www.w3.org/2000/svg">
    <path d="M147.08 152.161l-.091.182-3.779 7.195s-.364.847-.219 1.138c.146.3 1.203-.21 2.14.228.938.438 1.275 1.029 1.275 1.029s.72-.155.747-.747c.027-.592 6.894-7.268 6.976-6.985.081.282-7.049-2.04-7.049-2.04zM293.157 423.161c.41.346 1.694.637 3.097.574.774-.036 1.557-.191 2.203-.528.564-.291 1.029-.738 1.266-1.375.3-.819.282-1.977-.246-3.588-1.138-3.442-5.191-3.543-9.308-3.634-4.717-.109-9.507-.219-11.584-4.681-1.703-3.661-.874-6.63.966-8.597 1.047-1.12 2.44-1.903 3.871-2.277 1.458-.382 2.978-.364 4.262.137 1.894.72 3.26 2.377 3.251 5.1-.128 1.585-2.386 1.339-2.259-.009.009-1.621-.756-2.577-1.794-2.978-.847-.328-1.876-.337-2.887-.064a5.966 5.966 0 00-2.796 1.639c-1.266 1.348-1.803 3.442-.564 6.101 1.485 3.196 5.564 3.288 9.59 3.379 4.918.109 9.753.228 11.393 5.182.711 2.149.692 3.807.228 5.081-.456 1.23-1.302 2.067-2.341 2.605-.957.501-2.067.729-3.16.774-1.939.082-3.88-.465-4.636-1.102l1.448-1.731v-.008z" fill="#1a1a1d" data-original="#333333"/>
    <path d="M265.963 420.21c-10.254 9.981-5.728 12.34-10.592 8.852l-3.205 8.789s1.921 2.422 7.386 4.253c1.348 1.147 3.406 2.969 3.952 3.798.729 1.093-.291 12.486-.564 15.373-.619.382-1.503 1.011-1.512 1.639-.009.619.309.729.756.656.237.674 1.293.192 1.393.064.892 1.02 2.004-.801 1.995-2.013.309-2.496 1.977-16.411 1.275-17.359-.128-.173-.291-.474-.492-.856a8.16 8.16 0 00.975-.082c1.293 1.12 2.878 2.568 3.352 3.279.729 1.093-.291 12.486-.565 15.373-.61.382-1.503 1.038-1.512 1.639-.018.747.337.729.792.656.173.501.993.291 1.33.064.792.328 1.075.109 1.402-.401.282-.437.683-1.12.61-1.612.309-2.496 1.977-16.402 1.275-17.359-.41-.564-1.32-2.568-2.076-4.317 2.286-2.686 3.77-6.092 5.173-7.887 2.131-2.723 6.065-1.986 6.029-1.986.091.054.173.109.246.173 1.812 1.53-.027 9.453 2.896 12.795 2.923 3.342 2.923 4.317 2.923 4.317l.036 13.06c-.61.364-2.805 1.921-1.284 2.477.291.337.975.146 1.302-.091.392.583 1.165.201 1.53-.192.219-.237.1-1.111.456-1.84.346-.729-.045-8.633.456-10.419.492-1.785 1.575-2.514-.3-5.365-.583-.883-.619-2.104-.428-3.607.264.847-.555.228 1.174 2.213 1.731 1.977 2.923 4.317 2.923 4.317l.036 13.06c-.656.364-2.923 1.758-1.33 2.458.21.447 1.02.228 1.348-.009.355.519 1.731.009 1.694-.637.054-.382 0-.847.291-1.458.291-.61.237-9.435.729-11.22s1.302-1.713-.574-4.553c-1.876-2.842 1.921-9.08.437-17.33-2.341-13.087-21.411-18.77-31.739-8.724l.001.012z" fill="#1a1a1d" data-original="#333333"/>
    <path d="M245.254 430.046a2.257 2.257 0 00-.091.219c-.492 1.458-1.293 5.528.456 6.776 1.749 1.248 2.35 3.588 3.488 4.353 1.084.729 3.843.729 4.927 0 1.138-.765 1.749-3.097 3.488-4.353 1.74-1.248.948-5.318.456-6.776l-.082-.219c.483-1.02.929-2.896-.273-5.455-1.458.382-2.778 1.266-3.534 2.959l-2.514-.565-2.514.565c-.756-1.694-2.076-2.577-3.525-2.959-1.212 2.568-.756 4.435-.273 5.455h-.009z" fill="#1a1a1d" data-original="#333333"/>
  </g>
  <path xmlns="http://www.w3.org/2000/svg" d="M255.763 432.04l-4.071 3.078s1.548 1.156 3.26.519c1.713-.646.819-3.598.819-3.598h-.009v.001z" fill="#c3073f" data-original="#fff000"/>
  <path xmlns="http://www.w3.org/2000/svg" d="M255.763 432.04l-4.071 3.078a.2.2 0 00.045.036l3.816-2.404c.3.938.237 1.767-.128 2.596 1.04-.974.338-3.306.338-3.306z" fill="#db490c" data-original="#db490c"/>
  <path xmlns="http://www.w3.org/2000/svg" d="M245.873 432.04l4.071 3.078s-1.548 1.156-3.26.519c-1.713-.646-.819-3.598-.819-3.598h.009v.001z" fill="#c3073f" data-original="#fff000"/>
  <path xmlns="http://www.w3.org/2000/svg" d="M245.873 432.04l4.071 3.078s-.018.009-.054.036l-3.816-2.404c-.3.938-.237 1.767.127 2.596-1.038-.975-.337-3.306-.337-3.306h.009z" fill="#db490c" data-original="#db490c"/>
  <path xmlns="http://www.w3.org/2000/svg" d="M249.962 440.363c-1.266.692-2.413 1.393-3.679 3.233.465-1.102.874-2.176 2.996-3.361-1.429.346-2.65.819-4.162 2.086.711-.874 1.704-1.776 3.715-2.377-1.375.118-2.941.401-4.462 1.275.984-.838 2.277-1.594 4.963-1.74l.629.884zm1.849 0c1.266.692 2.413 1.393 3.679 3.233-.465-1.102-.874-2.176-2.996-3.361 1.429.346 2.65.819 4.162 2.086-.711-.874-1.704-1.776-3.715-2.377 1.375.118 2.941.401 4.462 1.275-.984-.838-2.277-1.594-4.963-1.74l-.629.884z" fill="#1a1a1d" data-original="#333333"/>
</svg>